<svg width="700" height="500" xmlns="http://www.w3.org/2000/svg">
 <!-- Created with Method Draw - http://github.com/duopixel/Method-Draw/ -->

 <g>
  <title>background</title>
  <rect fill="none" id="canvas_background" height="502" width="702" y="-1" x="-1"/>
  <g display="none" overflow="visible" y="0" x="0" height="100%" width="100%" id="canvasGrid">
   <rect fill="url(#gridpattern)" stroke-width="0" y="0" x="0" height="100%" width="100%"/>
  </g>
 </g>
 <g>
  <title>Layer 1</title>
  <g id="svg_40">
   <g transform="matrix(26.89929332709653,0,0,26.89929332709653,0,0) " id="svg_5">
    <path fill="#ffffff" id="svg_6" d="m23.511408,3.670164c0,0 -1.439,-1.239 -2.652,-0.548c-0.934,0.537 -6.867,3.514 -9.514,4.84l-3.748,-2.143c0.407,-0.721 0.475,-1.555 0.256,-2.359c-0.277,-1.016 -1.01,-1.979 -2.092,-2.598c-1.945,-1.115 -4.283,-0.691 -5.216,0.947c-0.416,0.723 -0.484,1.563 -0.266,2.373c0.277,1.016 1.01,1.98 2.092,2.602c0.478,0.27 0.976,0.449 1.471,0.541l0,0.001c0.004,0.001 0.008,0.001 0.012,0.003c0.039,0.006 0.084,0.015 0.127,0.02c3.086,0.459 4.664,1.33 5.43,1.944c-0.766,0.616 -2.344,1.485 -5.43,1.945c-0.043,0.005 -0.088,0.013 -0.127,0.019c-0.004,0.002 -0.008,0.002 -0.012,0.004l0,0c-0.494,0.092 -0.992,0.271 -1.471,0.542c-1.082,0.622 -1.814,1.585 -2.092,2.602c-0.219,0.808 -0.15,1.648 0.266,2.375c0.934,1.635 3.271,2.061 5.217,0.946c1.082,-0.621 1.814,-1.584 2.092,-2.602c0.219,-0.803 0.15,-1.635 -0.256,-2.357l3.748,-2.142c2.646,1.325 8.58,4.305 9.514,4.839c1.213,0.691 2.652,-0.547 2.652,-0.547l-9.838,-5.624l9.837,-5.623zm-17.511,1.257c-0.426,0.742 -1.67,0.863 -2.717,0.264c-0.615,-0.35 -1.078,-0.908 -1.236,-1.488c-0.069,-0.259 -0.114,-0.638 0.088,-0.985c0.424,-0.741 1.668,-0.862 2.715,-0.264c0.625,0.355 1.074,0.898 1.234,1.488c0.072,0.256 0.113,0.637 -0.084,0.985zm0.084,9.716c-0.16,0.591 -0.609,1.133 -1.234,1.489c-1.047,0.6 -2.291,0.478 -2.715,-0.265c-0.201,-0.348 -0.156,-0.726 -0.088,-0.982c0.158,-0.582 0.621,-1.14 1.236,-1.492c1.047,-0.598 2.291,-0.477 2.717,0.266c0.197,0.35 0.156,0.728 0.084,0.984z"/>
    <rect fill="#ffffff" id="svg_7" height="0.992" width="2.41" y="8.807164" x="16.021408"/>
    <rect fill="#ffffff" id="svg_8" height="0.992" width="2.408" y="8.807164" x="19.635408"/>
    <rect fill="#ffffff" id="svg_9" height="0.991" width="2.406" y="8.797164" x="23.459408"/>
    <g id="svg_10"/>
    <g id="svg_11"/>
    <g id="svg_12"/>
    <g id="svg_13"/>
    <g id="svg_14"/>
    <g id="svg_15"/>
    <g id="svg_16"/>
    <g id="svg_17"/>
    <g id="svg_18"/>
    <g id="svg_19"/>
    <g id="svg_20"/>
    <g id="svg_21"/>
    <g id="svg_22"/>
    <g id="svg_23"/>
    <g id="svg_24"/>
   </g>
   <g transform="matrix(26.89929332709653,0,0,26.89929332709653,0,0) " id="svg_25"/>
   <g transform="matrix(26.89929332709653,0,0,26.89929332709653,0,0) " id="svg_26"/>
   <g transform="matrix(26.89929332709653,0,0,26.89929332709653,0,0) " id="svg_27"/>
   <g transform="matrix(26.89929332709653,0,0,26.89929332709653,0,0) " id="svg_28"/>
   <g transform="matrix(26.89929332709653,0,0,26.89929332709653,0,0) " id="svg_29"/>
   <g transform="matrix(26.89929332709653,0,0,26.89929332709653,0,0) " id="svg_30"/>
   <g transform="matrix(26.89929332709653,0,0,26.89929332709653,0,0) " id="svg_31"/>
   <g transform="matrix(26.89929332709653,0,0,26.89929332709653,0,0) " id="svg_32"/>
   <g transform="matrix(26.89929332709653,0,0,26.89929332709653,0,0) " id="svg_33"/>
   <g transform="matrix(26.89929332709653,0,0,26.89929332709653,0,0) " id="svg_34"/>
   <g transform="matrix(26.89929332709653,0,0,26.89929332709653,0,0) " id="svg_35"/>
   <g transform="matrix(26.89929332709653,0,0,26.89929332709653,0,0) " id="svg_36"/>
   <g transform="matrix(26.89929332709653,0,0,26.89929332709653,0,0) " id="svg_37"/>
   <g transform="matrix(26.89929332709653,0,0,26.89929332709653,0,0) " id="svg_38"/>
   <g transform="matrix(26.89929332709653,0,0,26.89929332709653,0,0) " id="svg_39"/>
  </g>
 </g>
</svg>