<svg xmlns="http://www.w3.org/2000/svg" width="700" height="500" style=""><rect id="backgroundrect" width="100%" height="100%" x="0" y="0" fill="none" stroke="none"/>
 <!-- Created with Method Draw - http://github.com/duopixel/Method-Draw/ -->

 <g style="">
  <title>background</title>
  <rect x="-1" y="-1" width="702" height="502" id="canvas_background" fill="none"/>
  <g id="canvasGrid" display="none">
   <rect id="svg_1" width="100%" height="100%" x="0" y="0" stroke-width="0" fill="url(#gridpattern)"/>
  </g>
 </g>
 <g style="" class="currentLayer">
  <title>Layer 1</title>
  
   
   
   
   
   
   
   
   
   
   
   
   
   
   
   
   
  
 <g id="svg_5" class="selected">
    <path d="m631.3764843440057,97.12896572793919 c0,0 -38.708083097691905,-33.328224432272606 -71.33692590346,-14.740812743248899 c-25.12393996750816,14.444920516650837 -184.71744727717186,94.52411675141721 -255.91987671399636,130.1925797031472 l-100.8185513899578,-57.64518559996786 c10.948012384128289,-19.3943904888366 12.777164330370853,-41.82840112363511 6.886219091736712,-63.45543295862071 c-7.45110425160574,-27.329682020330075 -27.168286260367495,-53.23370149432404 -56.27332164028594,-69.88436406379678 c-52.31912552120275,-29.99271205971263 -115.20967331995445,-18.587411689023707 -140.3067139941355,25.473630780760416 c-11.190106024072158,19.44818907549079 -13.01925797031472,42.04359547025188 -7.155212025007677,63.83202306520007 c7.45110425160574,27.329682020330075 27.168286260367495,53.26060078765113 56.27332164028594,69.99196123710517 c12.857862210352142,7.262809198316064 26.25371028724621,12.077782703866344 39.568860484158996,14.552517689959224 l0,0.026899293327096545 c0.10759717330838617,0.026899293327096545 0.21519434661677234,0.026899293327096545 0.3227915199251584,0.0806978799812897 c1.0490724397567648,0.16139575996257924 2.259540639476109,0.4034893999064482 3.4162102525412594,0.5379858665419307 c83.01121920741988,12.346775637137307 125.4583040775782,35.776060125038384 146.06316276613416,52.29222622787565 c-20.604858688555947,16.569964689491464 -63.05194355871427,39.945450590738346 -146.06316276613416,52.31912552120275 c-1.156669613065151,0.13449646663548276 -2.3671378127844953,0.3496908132522553 -3.4162102525412594,0.5110865732148342 c-0.10759717330838617,0.05379858665419309 -0.21519434661677234,0.05379858665419309 -0.3227915199251584,0.10759717330838617 l0,0 c-13.288250903585688,2.4747349860928813 -26.684098980479757,7.28970849164316 -39.568860484158996,14.57941698328632 c-29.105035379918448,16.731360449454044 -48.7953180953531,42.635379923448 -56.27332164028594,69.99196123710517 c-5.89094523863414,21.734629008293997 -4.03489399906448,44.330035403055085 7.155212025007677,63.88582165185426 c25.12393996750816,43.98034458980283 87.98758847293274,55.43944354714595 140.33361328746258,25.44673148743332 c29.105035379918448,-16.704461156126946 48.7953180953531,-42.6084806301209 56.27332164028594,-69.99196123710517 c5.89094523863414,-21.600132541658514 4.03489399906448,-43.98034458980283 -6.886219091736712,-63.40163437196652 l100.8185513899578,-57.61828630664076 c71.17553014349741,35.64156365840291 230.79593674648822,115.80145777315055 255.91987671399636,130.1656804098201 c32.628842805768095,18.587411689023707 71.33692590346,-14.713913449921803 71.33692590346,-14.713913449921803 l-264.63524775197567,-151.2816256715909 l264.60834845864855,-151.2547263782638 zm-471.0335254507873,33.81241171216034 c-11.459098957343123,19.959275648705628 -44.92181985625121,23.21409014128431 -73.08537996972127,7.101413438353484 c-16.54306539616437,-9.414752664483787 -28.99743820661006,-24.42455834100365 -33.24752655229131,-40.02614847071963 c-1.8560512395696613,-6.9669169717180015 -3.0665194392890047,-17.16174914268759 2.3671378127844953,-26.49580392719008 c11.405300370688929,-19.93237635537853 44.868021269597016,-23.18719084795721 73.03158138306708,-7.101413438353484 c16.812058329435335,9.54924913111927 28.889841033301675,24.155565407732688 33.193727965637116,40.02614847071963 c1.9367491195509503,6.886219091736712 3.039620145961908,17.134849849360492 -2.259540639476109,26.49580392719008 zm2.259540639476109,261.35353396606985 c-4.3038869323354465,15.89748235631405 -16.38166963620179,30.47689933960037 -33.193727965637116,40.05304776404674 c-28.163560113470066,16.13957599625792 -61.62628101237815,12.857862210352142 -73.03158138306708,-7.12831273168058 c-5.406757958746403,-9.360954077829595 -4.196289759027059,-19.528886955472082 -2.3671378127844953,-26.41510604720879 c4.250088345681252,-15.655388716370183 16.704461156126946,-30.665194392890047 33.24752655229131,-40.133745644028025 c28.163560113470066,-16.085777409603725 61.62628101237815,-12.830962917025046 73.08537996972127,7.155212025007677 c5.299160785438017,9.414752664483787 4.196289759027059,19.582685542126274 2.259540639476109,26.468904633862984 z" id="svg_6" fill="#000000" stroke-width="0"/>
    <rect x="15.981859466647286" y="8.747841270588603" width="2.4100000858306885" height="0.9919999837875366" id="svg_7" fill="#000000" transform="matrix(26.89929332709653,0,0,26.89929332709653,0,0) " stroke-width="0"/>
    <rect x="19.595859787081856" y="8.747841270588603" width="2.4079999923706055" height="0.9919999837875366" id="svg_8" fill="#000000" transform="matrix(26.89929332709653,0,0,26.89929332709653,0,0) " stroke-width="0"/>
    <rect x="23.419859191989083" y="8.737841041706767" width="2.4059998989105225" height="0.9909999966621399" id="svg_9" fill="#000000" transform="matrix(26.89929332709653,0,0,26.89929332709653,0,0) " stroke-width="0"/>
    <g id="svg_10" stroke-width="0"/>
    <g id="svg_11" stroke-width="0"/>
    <g id="svg_12" stroke-width="0"/>
    <g id="svg_13" stroke-width="0"/>
    <g id="svg_14" stroke-width="0"/>
    <g id="svg_15" stroke-width="0"/>
    <g id="svg_16" stroke-width="0"/>
    <g id="svg_17" stroke-width="0"/>
    <g id="svg_18" stroke-width="0"/>
    <g id="svg_19" stroke-width="0"/>
    <g id="svg_20" stroke-width="0"/>
    <g id="svg_21" stroke-width="0"/>
    <g id="svg_22" stroke-width="0"/>
    <g id="svg_23" stroke-width="0"/>
    <g id="svg_24" stroke-width="0"/>
   </g><g id="svg_25" class="selected"/><g id="svg_26" class="selected"/><g id="svg_27" class="selected"/><g id="svg_28" class="selected"/><g id="svg_29" class="selected"/><g id="svg_30" class="selected"/><g id="svg_31" class="selected"/><g id="svg_32" class="selected"/><g id="svg_33" class="selected"/><g id="svg_34" class="selected"/><g id="svg_35" class="selected"/><g id="svg_36" class="selected"/><g id="svg_37" class="selected"/><g id="svg_38" class="selected"/><g id="svg_39" class="selected"/></g>
</svg>