<svg width="560" height="480" xmlns="http://www.w3.org/2000/svg">
 <!-- Created with Method Draw - http://github.com/duopixel/Method-Draw/ -->

 <g>
  <title>background</title>
  <rect x="-1" y="-1" width="562" height="482" id="canvas_background" fill="none"/>
  <g id="canvasGrid" display="none">
   <rect id="svg_1" width="100%" height="100%" x="0" y="0" stroke-width="0" fill="url(#gridpattern)"/>
  </g>
 </g>
 <g>
  <title>Layer 1</title>
  <g id="svg_12">
   <path d="m279.99998,468.5518a8.12978,8.12978 0 0 1 -6.2361,-2.90583l-261.19781,-310.1724a8.16243,8.16243 0 0 1 -0.29385,-10.15406l97.94918,-130.59891a8.16243,8.16243 0 0 1 6.52995,-3.26497l326.49726,0a8.16243,8.16243 0 0 1 6.52995,3.26497l97.94918,130.59891a8.16243,8.16243 0 0 1 -0.29385,10.15406l-261.19781,310.1724a8.12978,8.12978 0 0 1 -6.2361,2.90583zm-250.76622,-318.62868l250.76622,297.79815l250.76623,-297.79815l-91.59881,-122.14263l-318.33483,0l-91.59881,122.14263z" id="svg_4" fill="#000000"/>
   <path d="m541.19779,158.3794l-522.39562,0a8.16243,8.16243 0 1 1 0,-16.32486l522.39562,0a8.16243,8.16243 0 0 1 0,16.32486z" id="svg_5" fill="#000000"/>
   <path d="m279.99998,468.5518a8.12978,8.12978 0 0 1 -7.77063,-10.61116l97.94917,-310.1724a8.16243,8.16243 0 1 1 15.5576,4.91378l-97.94918,310.1724a8.16243,8.16243 0 0 1 -7.78696,5.69738z" id="svg_6" fill="#000000"/>
   <path d="m279.99998,468.5518a8.16243,8.16243 0 0 1 -7.78696,-5.7137l-97.94918,-310.1724a8.16243,8.16243 0 0 1 15.5576,-4.91379l97.94918,310.1724a8.16243,8.16243 0 0 1 -7.77064,10.62749z" id="svg_7" fill="#000000"/>
   <path d="m182.0508,158.3794a8.16243,8.16243 0 0 1 -7.31354,-4.50566l-65.29945,-130.59891a8.16243,8.16243 0 0 1 14.61075,-7.29721l65.29946,130.5989a8.16243,8.16243 0 0 1 -7.29722,11.80288z" id="svg_8" fill="#000000"/>
   <path d="m182.0508,158.3794a8.16243,8.16243 0 0 1 -6.51362,-13.05989l97.94918,-130.59891a8.16243,8.16243 0 0 1 13.05989,9.79492l-97.94918,130.59891a8.17876,8.17876 0 0 1 -6.54627,3.26497z" id="svg_9" fill="#000000"/>
   <path d="m377.94916,158.3794a8.12978,8.12978 0 0 1 -6.52994,-3.26497l-97.94918,-130.59891a8.16243,8.16243 0 1 1 13.05989,-9.79492l97.94918,130.59891a8.16243,8.16243 0 0 1 -6.52995,13.05989z" id="svg_10" fill="#000000"/>
   <path d="m377.94916,158.3794a8.16243,8.16243 0 0 1 -7.29721,-11.8192l65.29945,-130.59891a8.16243,8.16243 0 0 1 14.61075,7.29722l-65.29945,130.5989a8.19508,8.19508 0 0 1 -7.31354,4.52199z" id="svg_11" fill="#000000"/>
  </g>
 </g>
</svg>