<svg width="560" height="480" xmlns="http://www.w3.org/2000/svg">
 <!-- Created with Method Draw - http://github.com/duopixel/Method-Draw/ -->

 <g>
  <title>background</title>
  <rect fill="none" id="canvas_background" height="482" width="562" y="-1" x="-1"/>
  <g display="none" overflow="visible" y="0" x="0" height="100%" width="100%" id="canvasGrid">
   <rect fill="url(#gridpattern)" stroke-width="0" y="0" x="0" height="100%" width="100%"/>
  </g>
 </g>
 <g>
  <title>Layer 1</title>
  <g id="svg_12">
   <path fill="#ffffff" id="svg_4" d="m279.999981,468.551799a8.129782,8.129782 0 0 1 -6.236098,-2.905826l-261.197811,-310.172401a8.162432,8.162432 0 0 1 -0.293848,-10.154065l97.949179,-130.598906a8.162432,8.162432 0 0 1 6.529945,-3.264973l326.497264,0a8.162432,8.162432 0 0 1 6.529945,3.264973l97.949179,130.598906a8.162432,8.162432 0 0 1 -0.293848,10.154065l-261.197811,310.172401a8.129782,8.129782 0 0 1 -6.236098,2.905826zm-250.766224,-318.62868l250.766224,297.798155l250.766224,-297.798155l-91.598807,-122.142627l-318.334833,0l-91.598807,122.142627z"/>
   <path fill="#ffffff" id="svg_5" d="m541.197793,158.379398l-522.395623,0a8.162432,8.162432 0 1 1 0,-16.324863l522.395623,0a8.162432,8.162432 0 0 1 0,16.324863z"/>
   <path fill="#ffffff" id="svg_6" d="m279.999981,468.551799a8.129782,8.129782 0 0 1 -7.770635,-10.611161l97.949179,-310.172401a8.162432,8.162432 0 1 1 15.557595,4.913784l-97.949179,310.172401a8.162432,8.162432 0 0 1 -7.78696,5.697377z"/>
   <path fill="#ffffff" id="svg_7" d="m279.999981,468.551799a8.162432,8.162432 0 0 1 -7.78696,-5.713702l-97.949179,-310.172401a8.162432,8.162432 0 0 1 15.557595,-4.913784l97.949179,310.172401a8.162432,8.162432 0 0 1 -7.770635,10.627486z"/>
   <path fill="#ffffff" id="svg_8" d="m182.050802,158.379398a8.162432,8.162432 0 0 1 -7.313539,-4.505662l-65.299453,-130.598906a8.162432,8.162432 0 0 1 14.610753,-7.297214l65.299453,130.598906a8.162432,8.162432 0 0 1 -7.297214,11.802876z"/>
   <path fill="#ffffff" id="svg_9" d="m182.050802,158.379398a8.162432,8.162432 0 0 1 -6.51362,-13.059891l97.949179,-130.598906a8.162432,8.162432 0 0 1 13.059891,9.794918l-97.949179,130.598906a8.178756,8.178756 0 0 1 -6.54627,3.264973z"/>
   <path fill="#ffffff" id="svg_10" d="m377.94916,158.379398a8.129782,8.129782 0 0 1 -6.529945,-3.264973l-97.949179,-130.598906a8.162432,8.162432 0 1 1 13.059891,-9.794918l97.949179,130.598906a8.162432,8.162432 0 0 1 -6.529945,13.059891z"/>
   <path fill="#ffffff" id="svg_11" d="m377.94916,158.379398a8.162432,8.162432 0 0 1 -7.297214,-11.819201l65.299453,-130.598906a8.162432,8.162432 0 0 1 14.610753,7.297214l-65.299453,130.598906a8.195081,8.195081 0 0 1 -7.313539,4.521987z"/>
  </g>
 </g>
</svg>