<?xml version="1.0" encoding="UTF-8" standalone="no"?>
<svg width="375px" height="372px" viewBox="0 0 375 372" version="1.1" xmlns="http://www.w3.org/2000/svg" xmlns:xlink="http://www.w3.org/1999/xlink">
    <!-- Generator: Sketch 43.2 (39069) - http://www.bohemiancoding.com/sketch -->
    <title>prw-awards-2017</title>
    <desc>Created with Sketch.</desc>
    <defs>
        <polygon id="path-1" points="0.06 371.94 0.06 0.589 374.67 0.589 374.67 371.94"></polygon>
    </defs>
    <g id="Page-1" stroke="none" stroke-width="1" fill="none" fill-rule="evenodd">
        <g id="prw-awards-2017">
            <path d="M132.03,133.553 C136.454,133.553 139.042,130.91 139.042,127.46 L139.042,127.346 C139.042,123.379 136.282,121.253 131.856,121.253 L125.015,121.253 L125.015,133.553 L132.03,133.553 Z M116.165,113.264 L132.604,113.264 C142.204,113.264 148.009,118.953 148.009,127.174 L148.009,127.289 C148.009,136.601 140.766,141.428 131.742,141.428 L125.015,141.428 L125.015,153.5 L116.165,153.5 L116.165,113.264 L116.165,113.264 Z" id="Fill-1" fill="#FFFFFF"></path>
            <path d="M173.352,136.658 L168.006,123.61 L162.661,136.658 L173.352,136.658 Z M164.042,112.976 L172.204,112.976 L189.447,153.5 L180.193,153.5 L176.514,144.475 L159.499,144.475 L155.82,153.5 L146.796,153.5 L164.042,112.976 L164.042,112.976 Z" id="Fill-2" fill="#FFFFFF"></path>
            <path d="M213.178,132.806 C217.49,132.806 219.962,130.508 219.962,127.115 L219.962,127.001 C219.962,123.208 217.319,121.253 213.007,121.253 L204.211,121.253 L204.211,132.806 L213.178,132.806 Z M195.361,113.264 L213.754,113.264 C218.869,113.264 222.836,114.7 225.481,117.345 C227.722,119.586 228.929,122.748 228.929,126.541 L228.929,126.655 C228.929,133.151 225.422,137.232 220.307,139.13 L230.136,153.5 L219.79,153.5 L211.166,140.625 L204.211,140.625 L204.211,153.5 L195.361,153.5 L195.361,113.264 L195.361,113.264 Z" id="Fill-3" fill="#FFFFFF"></path>
            <polygon id="Fill-4" fill="#FFFFFF" points="237.026 153.5 245.876 153.5 245.876 113.264 237.026 113.264"></polygon>
            <path d="M252.886,147.637 L258.117,141.37 C261.739,144.361 265.532,146.256 270.13,146.256 C273.751,146.256 275.935,144.82 275.935,142.463 L275.935,142.349 C275.935,140.106 274.556,138.956 267.832,137.232 C259.727,135.163 254.496,132.922 254.496,124.932 L254.496,124.817 C254.496,117.517 260.359,112.688 268.577,112.688 C274.442,112.688 279.443,114.528 283.524,117.805 L278.926,124.472 C275.361,122.001 271.854,120.505 268.463,120.505 C265.072,120.505 263.291,122.058 263.291,124.012 L263.291,124.127 C263.291,126.772 265.015,127.634 271.97,129.415 C280.133,131.542 284.731,134.473 284.731,141.487 L284.731,141.601 C284.731,149.59 278.638,154.073 269.958,154.073 C263.865,154.073 257.715,151.947 252.886,147.637" id="Fill-5" fill="#FFFFFF"></path>
            <path d="M133.983,196.566 C138.295,196.566 140.766,194.268 140.766,190.876 L140.766,190.761 C140.766,186.968 138.123,185.013 133.811,185.013 L125.015,185.013 L125.015,196.566 L133.983,196.566 Z M116.165,177.025 L134.559,177.025 C139.673,177.025 143.64,178.461 146.285,181.106 C148.526,183.347 149.733,186.509 149.733,190.301 L149.733,190.417 C149.733,196.912 146.226,200.993 141.111,202.89 L150.94,217.26 L140.594,217.26 L131.97,204.385 L125.015,204.385 L125.015,217.26 L116.165,217.26 L116.165,177.025 L116.165,177.025 Z" id="Fill-6" fill="#FFFFFF"></path>
            <polyline id="Fill-7" fill="#FFFFFF" points="157.427 177.025 187.777 177.025 187.777 184.899 166.221 184.899 166.221 193.061 185.191 193.061 185.191 200.935 166.221 200.935 166.221 209.386 188.065 209.386 188.065 217.26 157.427 217.26 157.427 177.025"></polyline>
            <polyline id="Fill-8" fill="#FFFFFF" points="205.016 185.187 192.773 185.187 192.773 177.025 226.11 177.025 226.11 185.187 213.866 185.187 213.866 217.26 205.016 217.26 205.016 185.187"></polyline>
            <path d="M250.533,200.419 L245.188,187.371 L239.842,200.419 L250.533,200.419 Z M241.223,176.737 L249.385,176.737 L266.629,217.26 L257.374,217.26 L253.695,208.236 L236.68,208.236 L233.001,217.26 L223.978,217.26 L241.223,176.737 L241.223,176.737 Z" id="Fill-9" fill="#FFFFFF"></path>
            <polygon id="Fill-10" fill="#FFFFFF" points="272.943 217.26 281.793 217.26 281.793 177.025 272.943 177.025"></polygon>
            <polyline id="Fill-11" fill="#FFFFFF" points="291.565 177.025 300.415 177.025 300.415 209.213 320.478 209.213 320.478 217.26 291.565 217.26 291.565 177.025"></polyline>
            <path d="M139.271,264.177 L133.925,251.129 L128.58,264.177 L139.271,264.177 Z M129.961,240.496 L138.123,240.496 L155.367,281.019 L146.111,281.019 L142.433,271.995 L125.418,271.995 L121.739,281.019 L112.715,281.019 L129.961,240.496 L129.961,240.496 Z" id="Fill-12" fill="#FFFFFF"></path>
            <polyline id="Fill-13" fill="#FFFFFF" points="153.001 240.784 162.485 240.784 170.821 268.028 179.845 240.667 187.431 240.667 196.457 268.028 204.791 240.784 214.047 240.784 200.308 281.307 192.606 281.307 183.524 254.979 174.443 281.307 166.739 281.307 153.001 240.784"></polyline>
            <path d="M238.235,264.177 L232.889,251.129 L227.544,264.177 L238.235,264.177 Z M228.925,240.496 L237.087,240.496 L254.33,281.019 L245.075,281.019 L241.397,271.995 L224.382,271.995 L220.703,281.019 L211.679,281.019 L228.925,240.496 L228.925,240.496 Z" id="Fill-14" fill="#FFFFFF"></path>
            <path d="M278.06,260.325 C282.371,260.325 284.843,258.027 284.843,254.634 L284.843,254.52 C284.843,250.727 282.199,248.772 277.888,248.772 L269.092,248.772 L269.092,260.325 L278.06,260.325 Z M260.241,240.784 L278.635,240.784 C283.75,240.784 287.717,242.219 290.36,244.865 C292.603,247.105 293.81,250.267 293.81,254.06 L293.81,254.174 C293.81,260.671 290.303,264.752 285.188,266.649 L295.017,281.019 L284.671,281.019 L276.047,268.142 L269.092,268.142 L269.092,281.019 L260.241,281.019 L260.241,240.784 L260.241,240.784 Z" id="Fill-15" fill="#FFFFFF"></path>
            <path d="M317.195,273.028 C324.439,273.028 329.324,268.142 329.324,261.015 L329.324,260.901 C329.324,253.772 324.439,248.772 317.195,248.772 L310.355,248.772 L310.355,273.028 L317.195,273.028 Z M301.504,240.784 L317.195,240.784 C329.841,240.784 338.579,249.463 338.579,260.785 L338.579,260.901 C338.579,272.223 329.841,281.019 317.195,281.019 L301.504,281.019 L301.504,240.784 L301.504,240.784 Z" id="Fill-16" fill="#FFFFFF"></path>
            <g id="Group-20">
                <mask id="mask-2" fill="white">
                    <use xlink:href="#path-1"></use>
                </mask>
                <g id="Clip-18"></g>
                <path d="M342.826,275.157 L348.057,268.889 C351.679,271.88 355.472,273.776 360.069,273.776 C363.692,273.776 365.875,272.339 365.875,269.982 L365.875,269.868 C365.875,267.626 364.496,266.475 357.772,264.752 C349.666,262.682 344.436,260.441 344.436,252.451 L344.436,252.337 C344.436,245.036 350.298,240.208 358.517,240.208 C364.382,240.208 369.382,242.047 373.463,245.324 L368.865,251.991 C365.301,249.519 361.793,248.024 358.402,248.024 C355.012,248.024 353.231,249.577 353.231,251.532 L353.231,251.646 C353.231,254.292 354.955,255.153 361.91,256.934 C370.072,259.06 374.67,261.992 374.67,269.006 L374.67,269.121 C374.67,277.109 368.577,281.592 359.898,281.592 C353.805,281.592 347.654,279.466 342.826,275.157" id="Fill-17" fill="#FFFFFF" mask="url(#mask-2)"></path>
                <polyline id="Fill-19" fill="#FFFFFF" mask="url(#mask-2)" points="240.764 372 0 266.877 151.383 0.589 169.368 75.32 162.019 77.089 148.508 20.942 10.722 263.31 229.861 358.992 218.711 312.671 226.061 310.903 240.764 372"></polyline>
            </g>
            <path d="M278.389,330.6 L289.03,322.477 C291.671,320.405 292.687,319.065 292.687,317.359 C292.687,315.572 291.427,314.475 289.518,314.475 C287.609,314.475 286.106,315.572 283.872,318.13 L278.551,313.703 C281.597,309.763 284.603,307.61 290.127,307.61 C296.342,307.61 300.607,311.306 300.607,316.669 L300.607,316.75 C300.607,321.298 298.251,323.655 294.027,326.701 L289.152,330.113 L300.892,330.113 L300.892,336.531 L278.389,336.531 L278.389,330.6" id="Fill-21" fill="#FFFFFF"></path>
            <path d="M322.456,322.395 L322.456,322.314 C322.456,317.805 320.304,314.515 317.176,314.515 C314.048,314.515 311.977,317.683 311.977,322.233 L311.977,322.314 C311.977,326.864 314.089,330.113 317.257,330.113 C320.426,330.113 322.456,326.904 322.456,322.395 Z M304.056,322.395 L304.056,322.314 C304.056,314.272 309.174,307.529 317.257,307.529 C325.34,307.529 330.377,314.19 330.377,322.233 L330.377,322.314 C330.377,330.357 325.3,337.099 317.176,337.099 C309.052,337.099 304.056,330.438 304.056,322.395 L304.056,322.395 Z" id="Fill-22" fill="#FFFFFF"></path>
            <polyline id="Fill-23" fill="#FFFFFF" points="338.051 315.247 333.258 316.343 331.755 310.251 340.081 307.894 345.809 307.894 345.809 336.531 338.051 336.531 338.051 315.247"></polyline>
            <polyline id="Fill-24" fill="#FFFFFF" points="363.598 314.718 350.437 314.718 350.437 308.097 372.33 308.097 372.33 314.028 359.779 336.531 351.087 336.531 363.598 314.718"></polyline>
        </g>
    </g>
</svg>
