<?xml version="1.0" encoding="UTF-8" standalone="no"?>
<svg width="34px" height="34px" viewBox="0 0 34 34" version="1.1" xmlns="http://www.w3.org/2000/svg" xmlns:xlink="http://www.w3.org/1999/xlink">
    <!-- Generator: Sketch 43.2 (39069) - http://www.bohemiancoding.com/sketch -->
    <title>path32</title>
    <desc>Created with Sketch.</desc>
    <defs></defs>
    <g id="Page-1" stroke="none" stroke-width="1" fill="none" fill-rule="evenodd">
        <g id="Soundsuit_svg40" transform="translate(-46.000000, -116.000000)" fill="#FFFFFF">
            <g id="g6077" transform="translate(43.000000, 113.000000)">
                <path d="M19.9997484,3.93422462 C18.4123182,3.93422462 16.8792517,4.16524524 15.4312424,4.5945718 L15.4312424,11.2926706 L26.0228093,17.408941 L35.7768831,23.0405191 C35.9656189,22.0555307 36.0657754,21.0388357 36.0657754,19.999496 C36.0657754,11.127084 28.8730309,3.93422462 19.9997484,3.93422462 L19.9997484,3.93422462 L19.9997484,3.93422462 Z M29.8227694,20.3961104 L35.6253861,23.7456619 C33.9377994,30.811679 27.5825566,36.0657754 19.9997484,36.0657754 C15.9763209,36.0657754 12.2981665,34.5870413 9.47965307,32.1424434 L14.7452377,29.1024305 L14.7452377,29.1029422 L19.0444751,26.6201028 L22.4060586,24.6798267 L22.4060586,24.679315 L29.8227694,20.3961185 L29.8227694,20.3961185 L29.8227694,20.3961104 Z M14.7447303,4.81451995 C8.45290397,6.99185559 3.93422462,12.9676954 3.93422462,20.0000013 C3.93422462,24.5902192 5.85937172,28.7304816 8.9461517,31.6582563 L14.7452377,28.3102122 L14.7452377,20.0010038 L14.7448113,20.0010038 L14.7448113,4.81451995 L14.7447303,4.81451995 Z" id="path32"></path>
            </g>
        </g>
    </g>
</svg>